<svg
    xmlns="http://www.w3.org/2000/svg"
    viewBox="0 0 1104 1104"
    id="vector">
    <path
        id="path"
        d="M 549.6 210.1 C 549.089 203.581 546.01 197.524 541.044 193.27 C 536.078 189.016 529.62 186.904 523.1 187.4 L 521 187.5 C 514.481 188.011 508.424 191.09 504.17 196.056 C 499.916 201.022 497.804 207.48 498.3 214 L 503.8 285.4 C 504.121 289.728 505.578 293.896 508.022 297.482 C 510.466 301.068 513.813 303.947 517.724 305.829 C 521.634 307.71 525.973 308.528 530.3 308.2 L 532.3 308 C 536.628 307.679 540.796 306.222 544.382 303.778 C 547.968 301.334 550.847 297.987 552.729 294.076 C 554.61 290.166 555.428 285.827 555.1 281.5 L 549.6 210.1"
        fill="#00000000"
        stroke="#a0b4c5"
        stroke-width="2"/>
    <path
        id="path_1"
        d="M 584.9 224.9 C 584.874 222.213 583.787 219.643 581.877 217.752 C 579.968 215.861 577.387 214.8 574.7 214.8 C 572.013 214.8 569.432 215.861 567.523 217.752 C 565.613 219.643 564.526 222.213 564.5 224.9 C 564.5 226.69 564.971 228.45 565.867 230 C 566.762 231.55 568.05 232.838 569.6 233.733 C 571.15 234.629 572.91 235.1 574.7 235.1 C 577.404 235.1 580 234.025 581.912 232.112 C 583.825 230.2 584.9 227.604 584.9 224.9"
        fill="#00000000"
        stroke="#9a9897"
        stroke-width="2"/>
    <path
        id="path_2"
        d="M 622.2 272.8 C 622.2 267.991 620.934 263.265 618.529 259.1 C 616.124 254.935 612.665 251.476 608.5 249.071 C 604.335 246.666 599.609 245.4 594.8 245.4 C 587.536 245.4 580.562 248.289 575.425 253.425 C 570.289 258.562 567.4 265.536 567.4 272.8 C 567.4 280.064 570.289 287.038 575.425 292.175 C 580.562 297.311 587.536 300.2 594.8 300.2 C 599.609 300.2 604.335 298.934 608.5 296.529 C 612.665 294.124 616.124 290.665 618.529 286.5 C 620.934 282.335 622.2 277.609 622.2 272.8"
        fill="#00000000"
        stroke="#efb19b"
        stroke-width="2"/>
    <path
        id="path_3"
        d="M 496.3 276.7 C 496.274 274.004 495.19 271.423 493.284 269.516 C 491.377 267.61 488.796 266.526 486.1 266.5 C 483.387 266.5 480.78 267.572 478.852 269.481 C 476.924 271.391 475.826 273.987 475.8 276.7 C 475.8 278.508 476.276 280.284 477.18 281.85 C 478.084 283.416 479.384 284.716 480.95 285.62 C 482.516 286.524 484.292 287 486.1 287 C 488.813 286.974 491.409 285.876 493.319 283.948 C 495.228 282.02 496.3 279.413 496.3 276.7"
        fill="#00000000"
        stroke="#ccc8c5"
        stroke-width="2"/>
    <path
        id="path_4"
        d="M 645.5 299.1 C 645.5 296.396 644.425 293.8 642.512 291.888 C 640.6 289.975 638.004 288.9 635.3 288.9 C 632.596 288.9 630 289.975 628.088 291.888 C 626.175 293.8 625.1 296.396 625.1 299.1 C 625.1 301.804 626.175 304.4 628.088 306.312 C 630 308.225 632.596 309.3 635.3 309.3 C 638.004 309.3 640.6 308.225 642.512 306.312 C 644.425 304.4 645.5 301.804 645.5 299.1"
        fill="#00000000"
        stroke="#9a9897"
        stroke-width="2"/>
    <path
        id="path_5"
        d="M 662.2 349.4 C 663.101 345.134 662.861 340.706 661.504 336.562 C 660.148 332.419 657.723 328.706 654.475 325.798 C 651.226 322.891 647.268 320.89 643 320 L 573.2 305.3 C 568.934 304.399 564.506 304.639 560.362 305.996 C 556.219 307.352 552.506 309.777 549.598 313.025 C 546.691 316.274 544.69 320.232 543.8 324.5 L 543.4 326.4 C 542.037 332.829 543.284 339.543 546.864 345.054 C 550.444 350.565 556.072 354.432 562.5 355.8 L 632.4 370.5 C 636.666 371.401 641.094 371.161 645.238 369.804 C 649.381 368.448 653.094 366.023 656.002 362.775 C 658.909 359.526 660.91 355.568 661.8 351.3 L 662.2 349.4"
        fill="#00000000"
        stroke="#ccc8c5"
        stroke-width="2"/>
    <path
        id="path_6"
        d="M 180.4 695.9 Q 215.8 766.5 287.3 803.1 C 287.412 803.169 287.542 803.205 287.674 803.203 C 287.805 803.202 287.934 803.163 288.045 803.092 C 288.156 803.021 288.244 802.919 288.3 802.8 L 337.2 704.2 C 337.255 704.09 337.28 703.969 337.273 703.853 C 337.266 703.737 337.226 703.631 337.159 703.55 C 337.093 703.469 337.002 703.417 336.9 703.4 Q 306.3 687.9 287.9 660 C 244.6 594.4 270.8 506.7 342.2 474.7 C 376.7 459.1 415.3 460.5 449.3 476.8 C 449.433 476.839 449.576 476.83 449.704 476.775 C 449.831 476.721 449.936 476.623 450 476.5 L 498.9 378 C 498.966 377.879 498.994 377.742 498.982 377.605 C 498.97 377.468 498.918 377.337 498.832 377.23 C 498.746 377.122 498.631 377.042 498.5 377 Q 440.6 348.9 377.5 353.1 C 312.1 357.5 251 388.8 209.4 439.6 C 186.8 467.3 169.8 501 161.8 536.4 Q 145.5 608.5 172.3 677.7 Q 175.9 686.8 180.4 695.9"
        fill="#00000000"
        stroke="#a9c2b3"
        stroke-width="2"/>
    <path
        id="path_7"
        d="M 605.3 389 C 605.3 382.876 602.865 376.996 598.534 372.666 C 594.204 368.335 588.324 365.9 582.2 365.9 C 576.076 365.9 570.196 368.335 565.866 372.666 C 561.535 376.996 559.1 382.876 559.1 389 C 559.1 393.055 560.168 397.039 562.195 400.55 C 564.222 404.061 567.139 406.978 570.65 409.005 C 574.161 411.032 578.145 412.1 582.2 412.1 C 588.324 412.1 594.204 409.665 598.534 405.334 C 602.865 401.004 605.3 395.124 605.3 389"
        fill="#00000000"
        stroke="#efb19b"
        stroke-width="2"/>
    <path
        id="path_8"
        d="M 669 380.6 C 669.018 379.132 668.646 377.685 667.922 376.408 C 667.198 375.13 666.148 374.068 664.879 373.329 C 663.611 372.589 662.168 372.2 660.7 372.2 C 659.232 372.2 657.789 372.589 656.521 373.329 C 655.252 374.068 654.202 375.13 653.478 376.408 C 652.754 377.685 652.382 379.132 652.4 380.6 C 652.4 382.057 652.784 383.488 653.512 384.75 C 654.24 386.012 655.288 387.06 656.55 387.788 C 657.812 388.516 659.243 388.9 660.7 388.9 C 662.9 388.9 665.013 388.025 666.569 386.469 C 668.125 384.913 669 382.8 669 380.6"
        fill="#00000000"
        stroke="#9a9897"
        stroke-width="2"/>
    <path
        id="path_9"
        d="M 632.2 384 C 632.174 382.002 631.361 380.094 629.939 378.691 C 628.517 377.287 626.598 376.5 624.6 376.5 C 622.602 376.5 620.683 377.287 619.261 378.691 C 617.839 380.094 617.026 382.002 617 384 C 617 386.015 617.801 387.949 619.226 389.374 C 620.651 390.799 622.585 391.6 624.6 391.6 C 626.615 391.6 628.549 390.799 629.974 389.374 C 631.399 387.949 632.2 386.015 632.2 384"
        fill="#00000000"
        stroke="#9a9897"
        stroke-width="2"/>
    <path
        id="path_10"
        d="M 665.7 410 C 663.957 405.987 661.186 402.503 657.668 399.901 C 654.15 397.299 650.008 395.67 645.66 395.178 C 641.312 394.687 636.91 395.349 632.9 397.1 L 567.6 425.6 C 563.57 427.343 560.072 430.121 557.462 433.651 C 554.852 437.181 553.221 441.34 552.736 445.704 C 552.251 450.067 552.929 454.483 554.7 458.5 L 555.4 460.1 C 557.155 464.118 559.941 467.602 563.474 470.198 C 567.008 472.794 571.165 474.412 575.524 474.886 C 579.883 475.361 584.291 474.675 588.3 472.9 L 653.5 444.4 C 657.513 442.657 660.997 439.886 663.599 436.368 C 666.201 432.85 667.83 428.708 668.322 424.36 C 668.813 420.012 668.151 415.61 666.4 411.6 L 665.7 410"
        fill="#00000000"
        stroke="#fbd6a4"
        stroke-width="2"/>
    <path
        id="path_11"
        d="M 652.8 489 C 652.8 482.876 650.365 476.996 646.034 472.666 C 641.704 468.335 635.824 465.9 629.7 465.9 C 625.634 465.882 621.635 466.939 618.108 468.961 C 614.581 470.984 611.649 473.903 609.611 477.421 C 607.573 480.939 606.5 484.934 606.5 489 C 606.518 493.055 607.602 497.034 609.645 500.537 C 611.687 504.039 614.616 506.943 618.137 508.955 C 621.657 510.967 625.645 512.018 629.7 512 C 635.807 512 641.671 509.578 645.999 505.27 C 650.326 500.961 652.774 495.107 652.8 489"
        fill="#00000000"
        stroke="#efb19b"
        stroke-width="2"/>
    <path
        id="path_12"
        d="M 571.7 502 C 570.783 495.492 567.316 489.609 562.068 485.654 C 556.819 481.699 550.208 479.988 543.7 480.9 L 541.7 481.2 C 535.192 482.117 529.309 485.584 525.354 490.832 C 521.399 496.081 519.688 502.692 520.6 509.2 L 530.6 579.9 C 531.518 586.388 534.97 592.254 540.196 596.207 C 545.422 600.159 552.008 601.884 558.5 601 L 560.6 600.7 C 567.089 599.759 572.948 596.282 576.882 591.037 C 580.816 585.791 582.514 579.193 581.6 572.7 L 571.7 502"
        fill="#00000000"
        stroke="#a0b4c5"
        stroke-width="2"/>
    <path
        id="path_13"
        d="M 599.2 499.4 C 599.2 497.592 598.724 495.816 597.82 494.25 C 596.916 492.684 595.616 491.384 594.05 490.48 C 592.484 489.576 590.708 489.1 588.9 489.1 C 586.169 489.1 583.548 490.186 581.617 492.117 C 579.686 494.048 578.6 496.669 578.6 499.4 C 578.626 502.113 579.724 504.709 581.652 506.619 C 583.58 508.528 586.187 509.6 588.9 509.6 C 591.613 509.6 594.22 508.528 596.148 506.619 C 598.076 504.709 599.174 502.113 599.2 499.4"
        fill="#00000000"
        stroke="#fbd6a4"
        stroke-width="2"/>
    <path
        id="path_14"
        d="M 513.1 538.8 C 513.1 533.074 510.823 527.576 506.774 523.526 C 502.724 519.477 497.226 517.2 491.5 517.2 C 485.791 517.226 480.319 519.515 476.291 523.562 C 472.263 527.608 470 533.091 470 538.8 C 470.026 544.492 472.301 549.949 476.326 553.974 C 480.351 557.999 485.808 560.274 491.5 560.3 C 497.209 560.3 502.692 558.037 506.738 554.009 C 510.785 549.981 513.074 544.509 513.1 538.8"
        fill="#00000000"
        stroke="#fbd6a4"
        stroke-width="2"/>
    <path
        id="path_15"
        d="M 626.2 535.6 C 626.2 532.476 625.377 529.406 623.815 526.7 C 622.253 523.994 620.006 521.747 617.3 520.185 C 614.594 518.623 611.524 517.8 608.4 517.8 C 605.264 517.782 602.179 518.594 599.458 520.151 C 596.736 521.709 594.474 523.958 592.901 526.671 C 591.328 529.384 590.5 532.464 590.5 535.6 C 590.5 538.736 591.328 541.816 592.901 544.529 C 594.474 547.242 596.736 549.491 599.458 551.049 C 602.179 552.606 605.264 553.418 608.4 553.4 C 611.524 553.4 614.594 552.577 617.3 551.015 C 620.006 549.453 622.253 547.206 623.815 544.5 C 625.377 541.794 626.2 538.724 626.2 535.6"
        fill="#00000000"
        stroke="#ccc8c5"
        stroke-width="2"/>
    <path
        id="path_16"
        d="M 449.3 539.8 C 445.054 534.69 438.947 531.47 432.332 530.852 C 425.717 530.233 419.12 532.266 414 536.5 L 412.8 537.5 C 407.69 541.746 404.47 547.853 403.852 554.468 C 403.233 561.083 405.266 567.68 409.5 572.8 L 454.7 627.5 C 458.932 632.625 465.031 635.864 471.647 636.501 C 478.262 637.138 484.868 635.123 490 630.9 L 491.2 629.9 C 496.31 625.654 499.53 619.547 500.148 612.932 C 500.767 606.317 498.734 599.72 494.5 594.6 L 449.3 539.8"
        fill="#00000000"
        stroke="#efb19b"
        stroke-width="2"/>
    <path
        id="path_17"
        d="M 518.1 577.4 C 518.1 574.669 517.014 572.048 515.083 570.117 C 513.152 568.186 510.531 567.1 507.8 567.1 C 505.069 567.1 502.448 568.186 500.517 570.117 C 498.586 572.048 497.5 574.669 497.5 577.4 C 497.5 580.131 498.586 582.752 500.517 584.683 C 502.448 586.614 505.069 587.7 507.8 587.7 C 510.531 587.7 513.152 586.614 515.083 584.683 C 517.014 582.752 518.1 580.131 518.1 577.4"
        fill="#00000000"
        stroke="#9a9897"
        stroke-width="2"/>
    <path
        id="path_18"
        d="M 418.5 608.5 C 418.5 601.395 415.675 594.574 410.65 589.55 C 405.626 584.525 398.805 581.7 391.7 581.7 C 384.595 581.7 377.774 584.525 372.75 589.55 C 367.725 594.574 364.9 601.395 364.9 608.5 C 364.9 615.605 367.725 622.426 372.75 627.45 C 377.774 632.475 384.595 635.3 391.7 635.3 C 398.805 635.3 405.626 632.475 410.65 627.45 C 415.675 622.426 418.5 615.605 418.5 608.5"
        fill="#00000000"
        stroke="#fbd6a4"
        stroke-width="2"/>
    <path
        id="path_19"
        d="M 535.7 609.6 C 535.7 607.371 535.113 605.181 533.999 603.25 C 532.884 601.319 531.281 599.716 529.35 598.601 C 527.419 597.487 525.229 596.9 523 596.9 C 520.771 596.9 518.581 597.487 516.65 598.601 C 514.719 599.716 513.116 601.319 512.001 603.25 C 510.887 605.181 510.3 607.371 510.3 609.6 C 510.3 612.967 511.639 616.199 514.02 618.58 C 516.401 620.961 519.633 622.3 523 622.3 C 526.367 622.3 529.599 620.961 531.98 618.58 C 534.361 616.199 535.7 612.967 535.7 609.6"
        fill="#00000000"
        stroke="#ccc8c5"
        stroke-width="2"/>
    <path
        id="path_20"
        d="M 444.2 629.7 C 444.2 626.757 443.03 623.932 440.949 621.851 C 438.868 619.77 436.043 618.6 433.1 618.6 C 431.14 618.582 429.211 619.084 427.508 620.054 C 425.805 621.023 424.389 622.427 423.404 624.121 C 422.419 625.815 421.9 627.74 421.9 629.7 C 421.882 631.671 422.39 633.612 423.37 635.321 C 424.35 637.031 425.769 638.45 427.479 639.43 C 429.188 640.41 431.129 640.918 433.1 640.9 C 435.06 640.9 436.985 640.381 438.679 639.396 C 440.373 638.411 441.777 636.995 442.746 635.292 C 443.716 633.589 444.218 631.66 444.2 629.7"
        fill="#00000000"
        stroke="#a0b4c5"
        stroke-width="2"/>
    <path
        id="path_21"
        d="M 503 709 Q 504 694.7 503.6 678.5 C 503.584 678.411 503.545 678.329 503.486 678.261 C 503.427 678.193 503.35 678.142 503.265 678.114 C 503.179 678.085 503.088 678.081 503 678.1 L 478 682.8 Q 477.6 682.9 477.6 683.3 L 477.6 785.2 C 477.598 785.3 477.626 785.399 477.681 785.483 C 477.736 785.567 477.814 785.633 477.907 785.671 C 478 785.71 478.102 785.72 478.2 785.7 L 503.3 785.7 C 503.37 785.7 503.439 785.682 503.5 785.646 C 503.561 785.611 503.611 785.561 503.646 785.5 C 503.682 785.439 503.7 785.37 503.7 785.3 L 503.7 721 C 503.691 720.843 503.723 720.687 503.794 720.547 C 503.864 720.406 503.969 720.287 504.1 720.2 C 510.5 716.4 518.4 712.8 525.7 713.5 C 531.9 714.1 534.5 719.1 534.5 724.6 Q 534.7 754.1 534.6 785 C 534.58 785.116 534.595 785.235 534.643 785.343 C 534.691 785.45 534.769 785.542 534.868 785.605 C 534.967 785.669 535.082 785.702 535.2 785.7 L 560.5 785.7 C 560.57 785.7 560.639 785.682 560.7 785.646 C 560.761 785.611 560.811 785.561 560.846 785.5 C 560.882 785.439 560.9 785.37 560.9 785.3 Q 560.9 753.7 560.9 723.4 C 560.9 707.4 550.8 697.6 535 697.9 C 524.4 698.1 512.4 703.7 503.7 709.3 C 503.644 709.364 503.57 709.408 503.487 709.427 C 503.405 709.446 503.318 709.438 503.241 709.405 C 503.163 709.372 503.098 709.315 503.054 709.242 C 503.011 709.169 502.992 709.084 503 709"
        fill="#00000000"
        stroke="#9a9897"
        stroke-width="2"/>
    <path
        id="path_22"
        d="M 398.7 692 Q 406 691 412.2 691.7 C 431 693.6 432.3 715.4 428.4 729.2 C 424.7 741.8 414.2 745.1 402.6 747.2 C 402.432 747.247 402.287 747.355 402.195 747.503 C 402.103 747.651 402.069 747.828 402.1 748 L 403.7 757.1 Q 403.8 757.7 404.4 757.7 C 432.2 758.2 457.9 745.3 457.4 714 C 457.1 698 449.4 686.2 433.5 681.2 Q 424.9 678.5 418.2 678.3 Q 394.9 677.8 372.1 679.5 C 371.967 679.5 371.84 679.553 371.746 679.646 C 371.653 679.74 371.6 679.867 371.6 680 L 371.6 785 C 371.6 785.186 371.674 785.364 371.805 785.495 C 371.936 785.626 372.114 785.7 372.3 785.7 L 397.5 785.7 Q 398 785.7 398 785.2 L 398 692.8 Q 398 692.1 398.7 692"
        fill="#00000000"
        stroke="#9a9897"
        stroke-width="2"/>
    <path
        id="path_23"
        d="M 633 776.8 C 640.4 793.2 661.3 786.3 671.5 777.8 C 671.655 777.661 671.78 777.492 671.866 777.303 C 671.952 777.113 671.997 776.908 672 776.7 L 672 771.5 Q 672 770.8 671.3 771 Q 667.2 772.5 662.3 772.3 C 657.7 772.2 656.5 764.9 656.5 761.5 Q 656.4 740.7 656.4 720.1 C 656.5 710 653 701.5 642 699.1 C 625.3 695.4 607 701.2 590.6 708.2 Q 589.8 708.5 590.2 709.3 L 593.3 717.3 Q 593.5 717.9 594.2 717.7 Q 605.3 713.2 618.1 712.9 C 624.6 712.7 630.4 714.6 630.3 722.3 Q 630.3 728 630.3 733.7 Q 630.3 734.3 629.7 734.3 Q 620.5 734.6 611.3 735.1 C 598.8 735.8 585.4 739.1 582.3 753.3 C 579.2 768.1 583.3 785.9 601.6 787 Q 612.8 787.7 621.9 782.9 Q 627.1 780.2 632.2 776.5 Q 632.7 776.2 633 776.8"
        fill="#00000000"
        stroke="#9a9897"
        stroke-width="2"/>
    <path
        id="path_24"
        d="M 711.4 712.2 L 709.5 700.2 C 709.478 700.139 709.437 700.086 709.383 700.05 C 709.329 700.014 709.265 699.996 709.2 700 L 686.6 700 C 686.52 699.979 686.435 699.984 686.357 700.014 C 686.279 700.043 686.213 700.097 686.167 700.166 C 686.121 700.235 686.097 700.317 686.1 700.4 L 686.2 785.2 C 686.2 785.333 686.253 785.46 686.346 785.554 C 686.44 785.647 686.567 785.7 686.7 785.7 L 711.6 785.7 C 711.67 785.7 711.739 785.682 711.8 785.646 C 711.861 785.611 711.911 785.561 711.946 785.5 C 711.982 785.439 712 785.37 712 785.3 L 712 725 Q 712 724.4 712.4 723.9 Q 716.6 719.2 720.9 717.9 C 725.4 716.6 732.4 717.6 737.9 719.4 Q 738.5 719.6 738.6 719 L 741.3 698.6 Q 741.4 698 740.8 698 Q 734.2 697.9 728.6 698.7 C 720.7 699.7 716.3 706.2 712.1 712.3 Q 711.6 713.1 711.4 712.2"
        fill="#00000000"
        stroke="#9a9897"
        stroke-width="2"/>
    <path
        id="path_25"
        d="M 782.4 709 L 780.5 700.5 Q 780.4 700 779.9 700 L 757.4 700 C 757.32 700 757.244 700.032 757.188 700.088 C 757.132 700.144 757.1 700.22 757.1 700.3 L 757.2 785.3 C 757.197 785.391 757.225 785.48 757.28 785.553 C 757.334 785.625 757.412 785.677 757.5 785.7 L 782.4 785.7 Q 783 785.7 783 785.1 L 783 721.5 C 783.004 721.307 783.051 721.116 783.137 720.944 C 783.224 720.771 783.348 720.619 783.5 720.5 C 790.7 715.3 809.7 706.8 811.3 723 C 811.7 726 812 728.9 812 731.8 Q 812 758 812 785.3 C 812 785.406 812.042 785.508 812.117 785.583 C 812.192 785.658 812.294 785.7 812.4 785.7 L 837.2 785.7 C 837.337 785.702 837.472 785.669 837.588 785.605 C 837.703 785.542 837.794 785.45 837.85 785.343 C 837.905 785.235 837.923 785.116 837.9 785 L 837.9 721.3 Q 837.9 720.7 838.3 720.4 Q 846.5 714.9 853.8 713.8 C 864.9 712.2 866.4 719.9 866.4 728.8 Q 866.3 758.4 866.3 785 C 866.3 785.186 866.374 785.364 866.505 785.495 C 866.636 785.626 866.814 785.7 867 785.7 L 892.2 785.7 C 892.333 785.7 892.46 785.647 892.554 785.554 C 892.647 785.46 892.7 785.333 892.7 785.2 Q 892.8 755.3 892.7 726.2 Q 892.7 722.7 892.3 718.9 C 890.7 705 880.2 697 866.7 698.1 C 856.3 698.8 844.8 704.8 836 710.4 Q 835.4 710.7 835.1 710.2 C 829 698.4 816 695.7 803.5 699.6 Q 793.3 702.8 783.3 709.3 Q 782.6 709.8 782.4 709"
        fill="#00000000"
        stroke="#9a9897"
        stroke-width="2"/>
    <path
        id="path_26"
        d="M 964.7 776.8 C 972.4 793.1 992.3 786.5 1003.2 777.9 Q 1003.9 777.4 1003.9 776.5 L 1003.9 771.5 Q 1003.9 770.8 1003.3 771 Q 999.4 772.3 994.7 772.4 C 988.4 772.5 987.9 762.2 988 758 Q 988 738.6 988 719.9 C 988.1 706.8 982.3 699.4 968.8 698.3 C 952.5 696.9 936.9 701.8 922.1 708.3 Q 921.6 708.5 921.8 709 L 925 717.3 Q 925.3 717.9 925.9 717.7 C 932.8 714.9 961 706.8 962 720.7 Q 962.3 726.4 962.1 733.7 C 962.1 733.859 962.037 734.012 961.924 734.124 C 961.812 734.237 961.659 734.3 961.5 734.3 Q 952.4 734.7 942.5 735.1 C 927.8 735.8 914.8 740.8 913.4 757.8 C 912.3 770.5 916 784.5 930.7 786.7 C 944.2 788.7 953 783.6 964 776.6 C 964.078 776.553 964.168 776.529 964.259 776.53 C 964.35 776.53 964.44 776.556 964.517 776.603 C 964.595 776.651 964.658 776.719 964.7 776.8"
        fill="#00000000"
        stroke="#9a9897"
        stroke-width="2"/>
    <path
        id="path_27"
        d="M 771.4 864.6 C 772 868.4 771.9 875.5 767 876.9 C 755.1 880.5 741.7 873.4 731.3 866.3 C 731.198 866.232 731.078 866.196 730.955 866.199 C 730.833 866.201 730.714 866.24 730.615 866.312 C 730.516 866.384 730.441 866.484 730.4 866.6 L 724.2 882 C 724.161 882.133 724.17 882.276 724.225 882.404 C 724.279 882.531 724.377 882.636 724.5 882.7 C 735.1 888.8 746.7 890.7 758.8 890.4 C 770.3 890 778.2 885.5 785.9 877.9 Q 796.3 867.7 792.4 853.1 C 790.4 845.4 781.6 839.5 774.3 837 Q 767.3 834.5 759.9 832 C 753.2 829.7 746.4 826.2 750 817.6 C 751.3 814.5 760.6 815.3 763 815.7 Q 773 817 784 820.7 C 784.173 820.788 784.37 820.817 784.561 820.783 C 784.752 820.75 784.928 820.655 785.061 820.514 C 785.194 820.373 785.278 820.193 785.3 820 L 787.9 804 C 787.919 803.912 787.915 803.821 787.886 803.735 C 787.858 803.65 787.807 803.573 787.739 803.514 C 787.671 803.455 787.589 803.416 787.5 803.4 Q 778.3 802.1 768.9 801.4 Q 761.7 800.8 755 801.6 C 744.7 802.8 735.2 809.1 730.1 818.1 C 724 828.9 728.5 841.2 738.7 847.3 C 745.2 851.2 752.6 853.2 759.7 855.7 C 763.8 857.1 770.7 859.9 771.4 864.6"
        fill="#00000000"
        stroke="#9a9897"
        stroke-width="2"/>
    <path
        id="path_28"
        d="M 840.2 815.5 L 839.8 801.7 Q 839.8 801.1 839.2 801.1 C 836.7 801.1 833.5 800.5 831.4 802 Q 818.5 810.6 805.5 819.3 C 805.355 819.394 805.235 819.525 805.148 819.681 C 805.061 819.837 805.01 820.015 805 820.2 L 805 825 Q 805 825.4 805.5 825.6 L 813.8 828.1 C 813.949 828.144 814.08 828.237 814.17 828.364 C 814.261 828.491 814.306 828.644 814.3 828.8 Q 814.3 852.9 814.4 874.9 Q 814.4 884.2 822.1 888.5 C 825.9 890.6 833 890.7 837.4 890.2 Q 852.1 888.3 867.4 879.9 Q 868 879.6 868 878.9 L 868 872.5 C 867.984 872.394 867.94 872.294 867.872 872.211 C 867.804 872.128 867.715 872.065 867.615 872.028 C 867.514 871.99 867.405 871.981 867.3 872 C 860.7 872.7 853.6 873.7 847.4 873.5 C 842.6 873.3 840.6 869.1 840.5 864.9 Q 840.3 847.6 840.5 829.1 Q 840.5 828.7 840.9 828.6 L 865.7 826.2 C 865.852 826.179 865.993 826.11 866.101 826.001 C 866.21 825.893 866.279 825.752 866.3 825.6 L 867.2 816.7 Q 867.3 816.2 866.7 816.2 L 840.9 816.1 Q 840.3 816.1 840.2 815.5"
        fill="#00000000"
        stroke="#9a9897"
        stroke-width="2"/>
    <path
        id="path_29"
        d="M 451.3 812.5 L 449.3 803.8 C 449.255 803.624 449.151 803.469 449.005 803.36 C 448.86 803.251 448.682 803.194 448.5 803.2 L 426.7 803.1 Q 426 803.1 426 803.8 L 426 888.4 C 426 888.506 426.042 888.608 426.117 888.683 C 426.192 888.758 426.294 888.8 426.4 888.8 L 451.3 888.8 C 451.459 888.8 451.612 888.737 451.724 888.624 C 451.837 888.512 451.9 888.359 451.9 888.2 L 451.9 824.7 Q 451.9 824.3 452.2 823.9 Q 453 823.2 453.9 822.7 C 461.3 818.6 479 810.9 482.2 824.3 C 483.4 829.1 483.1 835 483.1 840.5 Q 483.2 866.5 483.1 888.3 C 483.1 888.433 483.153 888.56 483.246 888.654 C 483.34 888.747 483.467 888.8 483.6 888.8 L 508.6 888.8 C 508.706 888.8 508.808 888.758 508.883 888.683 C 508.958 888.608 509 888.506 509 888.4 Q 508.9 860.5 509.1 832.3 Q 509.2 821.7 507.9 817.7 C 503.3 802.6 487.9 798.7 474.1 802.7 Q 462.5 806 451.9 812.8 C 451.823 812.845 451.733 812.863 451.645 812.852 C 451.556 812.84 451.474 812.799 451.412 812.735 C 451.349 812.671 451.31 812.589 451.3 812.5"
        fill="#00000000"
        stroke="#9a9897"
        stroke-width="2"/>
    <path
        id="path_30"
        d="M 655.3 848 Q 672.8 847 689 845.6 C 696.1 845 704.8 843.9 710.1 838.8 Q 710.5 838.3 710.4 837.7 C 707.9 821.3 699.5 806.2 682.6 802.4 Q 667.7 799.1 652.2 804.5 C 637.5 809.7 629.9 823 628.1 838.3 C 625.1 864.8 633.1 889.7 664.2 890.4 C 681.4 890.8 697.1 883.4 711.3 873.3 Q 711.7 873 711.5 872.5 L 709.6 867.1 C 709.576 866.973 709.511 866.857 709.415 866.77 C 709.319 866.683 709.198 866.629 709.069 866.616 C 708.94 866.603 708.811 866.633 708.7 866.7 Q 699.6 870.6 689.8 872.7 Q 679.4 875 672.6 874.1 C 658.8 872.1 654.2 861.2 654.7 848.7 Q 654.7 848.1 655.3 848"
        fill="#00000000"
        stroke="#9a9897"
        stroke-width="2"/>
    <path
        id="path_31"
        d="M 578.6 866.9 C 578.554 866.984 578.479 867.048 578.389 867.081 C 578.299 867.115 578.201 867.115 578.111 867.081 C 578.021 867.048 577.946 866.984 577.9 866.9 C 572.7 849.2 567.1 831.8 559.7 815.1 C 556.1 806.9 552.7 802.2 543 802.1 Q 532.4 802.1 522.4 804 Q 521.6 804.1 521.6 805 L 521.5 812 Q 521.5 812.7 522.3 812.7 Q 527.4 812.5 530.1 816.3 Q 533.8 821.5 537.2 829.2 Q 549.1 856.6 559 888.3 C 559.063 888.457 559.175 888.591 559.318 888.68 C 559.462 888.77 559.631 888.812 559.8 888.8 L 580 888.8 C 580.149 888.8 580.298 888.764 580.437 888.695 C 580.575 888.626 580.699 888.525 580.8 888.4 C 592.6 870.5 604.3 851.8 610.2 831.8 Q 613.7 820 612.9 807.5 Q 612.7 804.8 611.7 801.9 Q 611.5 801.4 611 801.5 L 592.5 804 C 592.332 804.047 592.187 804.155 592.095 804.303 C 592.003 804.451 591.969 804.628 592 804.8 Q 594.7 821.7 591 837.7 C 588.6 847.7 583.6 857.6 578.6 866.9"
        fill="#00000000"
        stroke="#9a9897"
        stroke-width="2"/>
    <path
        id="path_32"
        d="M 397.7 803.6 C 397.721 803.52 397.716 803.435 397.686 803.357 C 397.657 803.279 397.603 803.213 397.534 803.167 C 397.465 803.121 397.383 803.097 397.3 803.1 L 372 803.1 C 371.917 803.097 371.835 803.121 371.766 803.167 C 371.697 803.213 371.643 803.279 371.614 803.357 C 371.584 803.435 371.579 803.52 371.6 803.6 L 371.6 888.4 C 371.6 888.506 371.642 888.608 371.717 888.683 C 371.792 888.758 371.894 888.8 372 888.8 L 397.3 888.8 C 397.406 888.8 397.508 888.758 397.583 888.683 C 397.658 888.608 397.7 888.506 397.7 888.4 L 397.7 803.6"
        fill="#00000000"
        stroke="#9a9897"
        stroke-width="2"/>
    <path
        id="path_33"
        d="M 630.1 742.9 Q 622 742.4 614 744.5 C 612.1 745 610.4 746.1 609.9 748.2 C 608.8 753.3 607.2 767.4 612.6 771 C 616.7 773.8 626.3 770.3 630.9 768.9 C 631.023 768.857 631.128 768.775 631.2 768.667 C 631.272 768.559 631.307 768.43 631.3 768.3 L 630.2 743 C 630.2 742.973 630.189 742.948 630.171 742.929 C 630.152 742.911 630.127 742.9 630.1 742.9"
        fill="#00000000"
        stroke="#9a9897"
        stroke-width="2"/>
    <path
        id="path_34"
        d="M 941.1 764.8 C 941.7 769.5 944.3 772.5 949.3 772 Q 956.1 771.3 962.7 768.7 Q 963.2 768.5 963.2 767.9 Q 962.1 755.8 962.2 743.6 Q 962.2 742.9 961.5 742.9 C 957.6 742.7 942.9 742.8 941.8 747.9 Q 939.9 756 941.1 764.8"
        fill="#00000000"
        stroke="#9a9897"
        stroke-width="2"/>
    <path
        id="path_35"
        d="M 682.5 835.4 C 681.7 827.8 678.3 813.9 669 813.8 Q 660.6 813.7 658.4 818.5 C 656.1 823.7 655.2 830.7 654.9 836.4 C 654.9 836.612 654.984 836.816 655.134 836.966 C 655.284 837.116 655.488 837.2 655.7 837.2 L 682 836 Q 682.5 836 682.5 835.4"
        fill="#00000000"
        stroke="#9a9897"
        stroke-width="2"/>
    <path
        id="path_36"
        d="M 0 0 L 1104 0 L 1104 1104 L 0 1104 L 0 0 Z M 549.6 210.1 C 549.089 203.581 546.01 197.524 541.044 193.27 C 536.078 189.016 529.62 186.904 523.1 187.4 L 521 187.5 C 514.481 188.011 508.424 191.09 504.17 196.056 C 499.916 201.022 497.804 207.48 498.3 214 L 503.8 285.4 C 504.121 289.728 505.578 293.896 508.022 297.482 C 510.466 301.068 513.813 303.947 517.724 305.829 C 521.634 307.71 525.973 308.528 530.3 308.2 L 532.3 308 C 536.628 307.679 540.796 306.222 544.382 303.778 C 547.968 301.334 550.847 297.987 552.729 294.076 C 554.61 290.166 555.428 285.827 555.1 281.5 L 549.6 210.1 Z M 584.9 224.9 C 584.874 222.213 583.787 219.643 581.877 217.752 C 579.968 215.861 577.387 214.8 574.7 214.8 C 572.013 214.8 569.432 215.861 567.523 217.752 C 565.613 219.643 564.526 222.213 564.5 224.9 C 564.5 226.69 564.971 228.45 565.867 230 C 566.762 231.55 568.05 232.838 569.6 233.733 C 571.15 234.629 572.91 235.1 574.7 235.1 C 577.404 235.1 580 234.025 581.912 232.112 C 583.825 230.2 584.9 227.604 584.9 224.9 Z M 622.2 272.8 C 622.2 267.991 620.934 263.265 618.529 259.1 C 616.124 254.935 612.665 251.476 608.5 249.071 C 604.335 246.666 599.609 245.4 594.8 245.4 C 587.536 245.4 580.562 248.289 575.425 253.425 C 570.289 258.562 567.4 265.536 567.4 272.8 C 567.4 280.064 570.289 287.038 575.425 292.175 C 580.562 297.311 587.536 300.2 594.8 300.2 C 599.609 300.2 604.335 298.934 608.5 296.529 C 612.665 294.124 616.124 290.665 618.529 286.5 C 620.934 282.335 622.2 277.609 622.2 272.8 Z M 496.3 276.7 C 496.274 274.004 495.19 271.423 493.284 269.516 C 491.377 267.61 488.796 266.526 486.1 266.5 C 483.387 266.5 480.78 267.572 478.852 269.481 C 476.924 271.391 475.826 273.987 475.8 276.7 C 475.8 278.508 476.276 280.284 477.18 281.85 C 478.084 283.416 479.384 284.716 480.95 285.62 C 482.516 286.524 484.292 287 486.1 287 C 488.813 286.974 491.409 285.876 493.319 283.948 C 495.228 282.02 496.3 279.413 496.3 276.7 Z M 645.5 299.1 C 645.5 296.396 644.425 293.8 642.512 291.888 C 640.6 289.975 638.004 288.9 635.3 288.9 C 632.596 288.9 630 289.975 628.088 291.888 C 626.175 293.8 625.1 296.396 625.1 299.1 C 625.1 301.804 626.175 304.4 628.088 306.312 C 630 308.225 632.596 309.3 635.3 309.3 C 638.004 309.3 640.6 308.225 642.512 306.312 C 644.425 304.4 645.5 301.804 645.5 299.1 Z M 662.2 349.4 C 663.101 345.134 662.861 340.706 661.504 336.562 C 660.148 332.419 657.723 328.706 654.475 325.798 C 651.226 322.891 647.268 320.89 643 320 L 573.2 305.3 C 568.934 304.399 564.506 304.639 560.362 305.996 C 556.219 307.352 552.506 309.777 549.598 313.025 C 546.691 316.274 544.69 320.232 543.8 324.5 L 543.4 326.4 C 542.037 332.829 543.284 339.543 546.864 345.054 C 550.444 350.565 556.072 354.432 562.5 355.8 L 632.4 370.5 C 636.666 371.401 641.094 371.161 645.238 369.804 C 649.381 368.448 653.094 366.023 656.002 362.775 C 658.909 359.526 660.91 355.568 661.8 351.3 L 662.2 349.4 Z M 180.4 695.9 Q 215.8 766.5 287.3 803.1 C 287.412 803.169 287.542 803.205 287.674 803.203 C 287.805 803.202 287.934 803.163 288.045 803.092 C 288.156 803.021 288.244 802.919 288.3 802.8 L 337.2 704.2 C 337.255 704.09 337.28 703.969 337.273 703.853 C 337.266 703.737 337.226 703.631 337.159 703.55 C 337.093 703.469 337.002 703.417 336.9 703.4 Q 306.3 687.9 287.9 660 C 244.6 594.4 270.8 506.7 342.2 474.7 C 376.7 459.1 415.3 460.5 449.3 476.8 C 449.433 476.839 449.576 476.83 449.704 476.775 C 449.831 476.721 449.936 476.623 450 476.5 L 498.9 378 C 498.966 377.879 498.994 377.742 498.982 377.605 C 498.97 377.468 498.918 377.337 498.832 377.23 C 498.746 377.122 498.631 377.042 498.5 377 Q 440.6 348.9 377.5 353.1 C 312.1 357.5 251 388.8 209.4 439.6 C 186.8 467.3 169.8 501 161.8 536.4 Q 145.5 608.5 172.3 677.7 Q 175.9 686.8 180.4 695.9 Z M 605.3 389 C 605.3 382.876 602.865 376.996 598.534 372.666 C 594.204 368.335 588.324 365.9 582.2 365.9 C 576.076 365.9 570.196 368.335 565.866 372.666 C 561.535 376.996 559.1 382.876 559.1 389 C 559.1 393.055 560.168 397.039 562.195 400.55 C 564.222 404.061 567.139 406.978 570.65 409.005 C 574.161 411.032 578.145 412.1 582.2 412.1 C 588.324 412.1 594.204 409.665 598.534 405.334 C 602.865 401.004 605.3 395.124 605.3 389 Z M 669 380.6 C 669.018 379.132 668.646 377.685 667.922 376.408 C 667.198 375.13 666.148 374.068 664.879 373.329 C 663.611 372.589 662.168 372.2 660.7 372.2 C 659.232 372.2 657.789 372.589 656.521 373.329 C 655.252 374.068 654.202 375.13 653.478 376.408 C 652.754 377.685 652.382 379.132 652.4 380.6 C 652.4 382.057 652.784 383.488 653.512 384.75 C 654.24 386.012 655.288 387.06 656.55 387.788 C 657.812 388.516 659.243 388.9 660.7 388.9 C 662.9 388.9 665.013 388.025 666.569 386.469 C 668.125 384.913 669 382.8 669 380.6 Z M 632.2 384 C 632.174 382.002 631.361 380.094 629.939 378.691 C 628.517 377.287 626.598 376.5 624.6 376.5 C 622.602 376.5 620.683 377.287 619.261 378.691 C 617.839 380.094 617.026 382.002 617 384 C 617 386.015 617.801 387.949 619.226 389.374 C 620.651 390.799 622.585 391.6 624.6 391.6 C 626.615 391.6 628.549 390.799 629.974 389.374 C 631.399 387.949 632.2 386.015 632.2 384 Z M 665.7 410 C 663.957 405.987 661.186 402.503 657.668 399.901 C 654.15 397.299 650.008 395.67 645.66 395.178 C 641.312 394.687 636.91 395.349 632.9 397.1 L 567.6 425.6 C 563.57 427.343 560.072 430.121 557.462 433.651 C 554.852 437.181 553.221 441.34 552.736 445.704 C 552.251 450.067 552.929 454.483 554.7 458.5 L 555.4 460.1 C 557.155 464.118 559.941 467.602 563.474 470.198 C 567.008 472.794 571.165 474.412 575.524 474.886 C 579.883 475.361 584.291 474.675 588.3 472.9 L 653.5 444.4 C 657.513 442.657 660.997 439.886 663.599 436.368 C 666.201 432.85 667.83 428.708 668.322 424.36 C 668.813 420.012 668.151 415.61 666.4 411.6 L 665.7 410 Z M 652.8 489 C 652.8 482.876 650.365 476.996 646.034 472.666 C 641.704 468.335 635.824 465.9 629.7 465.9 C 625.634 465.882 621.635 466.939 618.108 468.961 C 614.581 470.984 611.649 473.903 609.611 477.421 C 607.573 480.939 606.5 484.934 606.5 489 C 606.518 493.055 607.602 497.034 609.645 500.537 C 611.687 504.039 614.616 506.943 618.137 508.955 C 621.657 510.967 625.645 512.018 629.7 512 C 635.807 512 641.671 509.578 645.999 505.27 C 650.326 500.961 652.774 495.107 652.8 489 Z M 571.7 502 C 570.783 495.492 567.316 489.609 562.068 485.654 C 556.819 481.699 550.208 479.988 543.7 480.9 L 541.7 481.2 C 535.192 482.117 529.309 485.584 525.354 490.832 C 521.399 496.081 519.688 502.692 520.6 509.2 L 530.6 579.9 C 531.518 586.388 534.97 592.254 540.196 596.207 C 545.422 600.159 552.008 601.884 558.5 601 L 560.6 600.7 C 567.089 599.759 572.948 596.282 576.882 591.037 C 580.816 585.791 582.514 579.193 581.6 572.7 L 571.7 502 Z M 599.2 499.4 C 599.2 497.592 598.724 495.816 597.82 494.25 C 596.916 492.684 595.616 491.384 594.05 490.48 C 592.484 489.576 590.708 489.1 588.9 489.1 C 586.169 489.1 583.548 490.186 581.617 492.117 C 579.686 494.048 578.6 496.669 578.6 499.4 C 578.626 502.113 579.724 504.709 581.652 506.619 C 583.58 508.528 586.187 509.6 588.9 509.6 C 591.613 509.6 594.22 508.528 596.148 506.619 C 598.076 504.709 599.174 502.113 599.2 499.4 Z M 513.1 538.8 C 513.1 533.074 510.823 527.576 506.774 523.526 C 502.724 519.477 497.226 517.2 491.5 517.2 C 485.791 517.226 480.319 519.515 476.291 523.562 C 472.263 527.608 470 533.091 470 538.8 C 470.026 544.492 472.301 549.949 476.326 553.974 C 480.351 557.999 485.808 560.274 491.5 560.3 C 497.209 560.3 502.692 558.037 506.738 554.009 C 510.785 549.981 513.074 544.509 513.1 538.8 Z M 626.2 535.6 C 626.2 532.476 625.377 529.406 623.815 526.7 C 622.253 523.994 620.006 521.747 617.3 520.185 C 614.594 518.623 611.524 517.8 608.4 517.8 C 605.264 517.782 602.179 518.594 599.458 520.151 C 596.736 521.709 594.474 523.958 592.901 526.671 C 591.328 529.384 590.5 532.464 590.5 535.6 C 590.5 538.736 591.328 541.816 592.901 544.529 C 594.474 547.242 596.736 549.491 599.458 551.049 C 602.179 552.606 605.264 553.418 608.4 553.4 C 611.524 553.4 614.594 552.577 617.3 551.015 C 620.006 549.453 622.253 547.206 623.815 544.5 C 625.377 541.794 626.2 538.724 626.2 535.6 Z M 449.3 539.8 C 445.054 534.69 438.947 531.47 432.332 530.852 C 425.717 530.233 419.12 532.266 414 536.5 L 412.8 537.5 C 407.69 541.746 404.47 547.853 403.852 554.468 C 403.233 561.083 405.266 567.68 409.5 572.8 L 454.7 627.5 C 458.932 632.625 465.031 635.864 471.647 636.501 C 478.262 637.138 484.868 635.123 490 630.9 L 491.2 629.9 C 496.31 625.654 499.53 619.547 500.148 612.932 C 500.767 606.317 498.734 599.72 494.5 594.6 L 449.3 539.8 Z M 518.1 577.4 C 518.1 574.669 517.014 572.048 515.083 570.117 C 513.152 568.186 510.531 567.1 507.8 567.1 C 505.069 567.1 502.448 568.186 500.517 570.117 C 498.586 572.048 497.5 574.669 497.5 577.4 C 497.5 580.131 498.586 582.752 500.517 584.683 C 502.448 586.614 505.069 587.7 507.8 587.7 C 510.531 587.7 513.152 586.614 515.083 584.683 C 517.014 582.752 518.1 580.131 518.1 577.4 Z M 418.5 608.5 C 418.5 601.395 415.675 594.574 410.65 589.55 C 405.626 584.525 398.805 581.7 391.7 581.7 C 384.595 581.7 377.774 584.525 372.75 589.55 C 367.725 594.574 364.9 601.395 364.9 608.5 C 364.9 615.605 367.725 622.426 372.75 627.45 C 377.774 632.475 384.595 635.3 391.7 635.3 C 398.805 635.3 405.626 632.475 410.65 627.45 C 415.675 622.426 418.5 615.605 418.5 608.5 Z M 535.7 609.6 C 535.7 607.371 535.113 605.181 533.999 603.25 C 532.884 601.319 531.281 599.716 529.35 598.601 C 527.419 597.487 525.229 596.9 523 596.9 C 520.771 596.9 518.581 597.487 516.65 598.601 C 514.719 599.716 513.116 601.319 512.001 603.25 C 510.887 605.181 510.3 607.371 510.3 609.6 C 510.3 612.967 511.639 616.199 514.02 618.58 C 516.401 620.961 519.633 622.3 523 622.3 C 526.367 622.3 529.599 620.961 531.98 618.58 C 534.361 616.199 535.7 612.967 535.7 609.6 Z M 444.2 629.7 C 444.2 626.757 443.03 623.932 440.949 621.851 C 438.868 619.77 436.043 618.6 433.1 618.6 C 431.14 618.582 429.211 619.084 427.508 620.054 C 425.805 621.023 424.389 622.427 423.404 624.121 C 422.419 625.815 421.9 627.74 421.9 629.7 C 421.882 631.671 422.39 633.612 423.37 635.321 C 424.35 637.031 425.769 638.45 427.479 639.43 C 429.188 640.41 431.129 640.918 433.1 640.9 C 435.06 640.9 436.985 640.381 438.679 639.396 C 440.373 638.411 441.777 636.995 442.746 635.292 C 443.716 633.589 444.218 631.66 444.2 629.7 Z M 503 709 Q 504 694.7 503.6 678.5 C 503.584 678.411 503.545 678.329 503.486 678.261 C 503.427 678.193 503.35 678.142 503.265 678.114 C 503.179 678.085 503.088 678.081 503 678.1 L 478 682.8 Q 477.6 682.9 477.6 683.3 L 477.6 785.2 C 477.598 785.3 477.626 785.399 477.681 785.483 C 477.736 785.567 477.814 785.633 477.907 785.671 C 478 785.71 478.102 785.72 478.2 785.7 L 503.3 785.7 C 503.37 785.7 503.439 785.682 503.5 785.646 C 503.561 785.611 503.611 785.561 503.646 785.5 C 503.682 785.439 503.7 785.37 503.7 785.3 L 503.7 721 C 503.691 720.843 503.723 720.687 503.794 720.547 C 503.864 720.406 503.969 720.287 504.1 720.2 C 510.5 716.4 518.4 712.8 525.7 713.5 C 531.9 714.1 534.5 719.1 534.5 724.6 Q 534.7 754.1 534.6 785 C 534.58 785.116 534.595 785.235 534.643 785.343 C 534.691 785.45 534.769 785.542 534.868 785.605 C 534.967 785.669 535.082 785.702 535.2 785.7 L 560.5 785.7 C 560.57 785.7 560.639 785.682 560.7 785.646 C 560.761 785.611 560.811 785.561 560.846 785.5 C 560.882 785.439 560.9 785.37 560.9 785.3 Q 560.9 753.7 560.9 723.4 C 560.9 707.4 550.8 697.6 535 697.9 C 524.4 698.1 512.4 703.7 503.7 709.3 C 503.644 709.364 503.57 709.408 503.487 709.427 C 503.405 709.446 503.318 709.438 503.241 709.405 C 503.163 709.372 503.098 709.315 503.054 709.242 C 503.011 709.169 502.992 709.084 503 709 Z M 398.7 692 Q 406 691 412.2 691.7 C 431 693.6 432.3 715.4 428.4 729.2 C 424.7 741.8 414.2 745.1 402.6 747.2 C 402.432 747.247 402.287 747.355 402.195 747.503 C 402.103 747.651 402.069 747.828 402.1 748 L 403.7 757.1 Q 403.8 757.7 404.4 757.7 C 432.2 758.2 457.9 745.3 457.4 714 C 457.1 698 449.4 686.2 433.5 681.2 Q 424.9 678.5 418.2 678.3 Q 394.9 677.8 372.1 679.5 C 371.967 679.5 371.84 679.553 371.746 679.646 C 371.653 679.74 371.6 679.867 371.6 680 L 371.6 785 C 371.6 785.186 371.674 785.364 371.805 785.495 C 371.936 785.626 372.114 785.7 372.3 785.7 L 397.5 785.7 Q 398 785.7 398 785.2 L 398 692.8 Q 398 692.1 398.7 692 Z M 633 776.8 C 640.4 793.2 661.3 786.3 671.5 777.8 C 671.655 777.661 671.78 777.492 671.866 777.303 C 671.952 777.113 671.997 776.908 672 776.7 L 672 771.5 Q 672 770.8 671.3 771 Q 667.2 772.5 662.3 772.3 C 657.7 772.2 656.5 764.9 656.5 761.5 Q 656.4 740.7 656.4 720.1 C 656.5 710 653 701.5 642 699.1 C 625.3 695.4 607 701.2 590.6 708.2 Q 589.8 708.5 590.2 709.3 L 593.3 717.3 Q 593.5 717.9 594.2 717.7 Q 605.3 713.2 618.1 712.9 C 624.6 712.7 630.4 714.6 630.3 722.3 Q 630.3 728 630.3 733.7 Q 630.3 734.3 629.7 734.3 Q 620.5 734.6 611.3 735.1 C 598.8 735.8 585.4 739.1 582.3 753.3 C 579.2 768.1 583.3 785.9 601.6 787 Q 612.8 787.7 621.9 782.9 Q 627.1 780.2 632.2 776.5 Q 632.7 776.2 633 776.8 Z M 711.4 712.2 L 709.5 700.2 C 709.478 700.139 709.437 700.086 709.383 700.05 C 709.329 700.014 709.265 699.996 709.2 700 L 686.6 700 C 686.52 699.979 686.435 699.984 686.357 700.014 C 686.279 700.043 686.213 700.097 686.167 700.166 C 686.121 700.235 686.097 700.317 686.1 700.4 L 686.2 785.2 C 686.2 785.333 686.253 785.46 686.346 785.554 C 686.44 785.647 686.567 785.7 686.7 785.7 L 711.6 785.7 C 711.67 785.7 711.739 785.682 711.8 785.646 C 711.861 785.611 711.911 785.561 711.946 785.5 C 711.982 785.439 712 785.37 712 785.3 L 712 725 Q 712 724.4 712.4 723.9 Q 716.6 719.2 720.9 717.9 C 725.4 716.6 732.4 717.6 737.9 719.4 Q 738.5 719.6 738.6 719 L 741.3 698.6 Q 741.4 698 740.8 698 Q 734.2 697.9 728.6 698.7 C 720.7 699.7 716.3 706.2 712.1 712.3 Q 711.6 713.1 711.4 712.2 Z M 782.4 709 L 780.5 700.5 Q 780.4 700 779.9 700 L 757.4 700 C 757.32 700 757.244 700.032 757.188 700.088 C 757.132 700.144 757.1 700.22 757.1 700.3 L 757.2 785.3 C 757.197 785.391 757.225 785.48 757.28 785.553 C 757.334 785.625 757.412 785.677 757.5 785.7 L 782.4 785.7 Q 783 785.7 783 785.1 L 783 721.5 C 783.004 721.307 783.051 721.116 783.137 720.944 C 783.224 720.771 783.348 720.619 783.5 720.5 C 790.7 715.3 809.7 706.8 811.3 723 C 811.7 726 812 728.9 812 731.8 Q 812 758 812 785.3 C 812 785.406 812.042 785.508 812.117 785.583 C 812.192 785.658 812.294 785.7 812.4 785.7 L 837.2 785.7 C 837.337 785.702 837.472 785.669 837.588 785.605 C 837.703 785.542 837.794 785.45 837.85 785.343 C 837.905 785.235 837.923 785.116 837.9 785 L 837.9 721.3 Q 837.9 720.7 838.3 720.4 Q 846.5 714.9 853.8 713.8 C 864.9 712.2 866.4 719.9 866.4 728.8 Q 866.3 758.4 866.3 785 C 866.3 785.186 866.374 785.364 866.505 785.495 C 866.636 785.626 866.814 785.7 867 785.7 L 892.2 785.7 C 892.333 785.7 892.46 785.647 892.554 785.554 C 892.647 785.46 892.7 785.333 892.7 785.2 Q 892.8 755.3 892.7 726.2 Q 892.7 722.7 892.3 718.9 C 890.7 705 880.2 697 866.7 698.1 C 856.3 698.8 844.8 704.8 836 710.4 Q 835.4 710.7 835.1 710.2 C 829 698.4 816 695.7 803.5 699.6 Q 793.3 702.8 783.3 709.3 Q 782.6 709.8 782.4 709 Z M 964.7 776.8 C 972.4 793.1 992.3 786.5 1003.2 777.9 Q 1003.9 777.4 1003.9 776.5 L 1003.9 771.5 Q 1003.9 770.8 1003.3 771 Q 999.4 772.3 994.7 772.4 C 988.4 772.5 987.9 762.2 988 758 Q 988 738.6 988 719.9 C 988.1 706.8 982.3 699.4 968.8 698.3 C 952.5 696.9 936.9 701.8 922.1 708.3 Q 921.6 708.5 921.8 709 L 925 717.3 Q 925.3 717.9 925.9 717.7 C 932.8 714.9 961 706.8 962 720.7 Q 962.3 726.4 962.1 733.7 C 962.1 733.859 962.037 734.012 961.924 734.124 C 961.812 734.237 961.659 734.3 961.5 734.3 Q 952.4 734.7 942.5 735.1 C 927.8 735.8 914.8 740.8 913.4 757.8 C 912.3 770.5 916 784.5 930.7 786.7 C 944.2 788.7 953 783.6 964 776.6 C 964.078 776.553 964.168 776.529 964.259 776.53 C 964.35 776.53 964.44 776.556 964.517 776.603 C 964.595 776.651 964.658 776.719 964.7 776.8 Z M 771.4 864.6 C 772 868.4 771.9 875.5 767 876.9 C 755.1 880.5 741.7 873.4 731.3 866.3 C 731.198 866.232 731.078 866.196 730.955 866.199 C 730.833 866.201 730.714 866.24 730.615 866.312 C 730.516 866.384 730.441 866.484 730.4 866.6 L 724.2 882 C 724.161 882.133 724.17 882.276 724.225 882.404 C 724.279 882.531 724.377 882.636 724.5 882.7 C 735.1 888.8 746.7 890.7 758.8 890.4 C 770.3 890 778.2 885.5 785.9 877.9 Q 796.3 867.7 792.4 853.1 C 790.4 845.4 781.6 839.5 774.3 837 Q 767.3 834.5 759.9 832 C 753.2 829.7 746.4 826.2 750 817.6 C 751.3 814.5 760.6 815.3 763 815.7 Q 773 817 784 820.7 C 784.173 820.788 784.37 820.817 784.561 820.783 C 784.752 820.75 784.928 820.655 785.061 820.514 C 785.194 820.373 785.278 820.193 785.3 820 L 787.9 804 C 787.919 803.912 787.915 803.821 787.886 803.735 C 787.858 803.65 787.807 803.573 787.739 803.514 C 787.671 803.455 787.589 803.416 787.5 803.4 Q 778.3 802.1 768.9 801.4 Q 761.7 800.8 755 801.6 C 744.7 802.8 735.2 809.1 730.1 818.1 C 724 828.9 728.5 841.2 738.7 847.3 C 745.2 851.2 752.6 853.2 759.7 855.7 C 763.8 857.1 770.7 859.9 771.4 864.6 Z M 840.2 815.5 L 839.8 801.7 Q 839.8 801.1 839.2 801.1 C 836.7 801.1 833.5 800.5 831.4 802 Q 818.5 810.6 805.5 819.3 C 805.355 819.394 805.235 819.525 805.148 819.681 C 805.061 819.837 805.01 820.015 805 820.2 L 805 825 Q 805 825.4 805.5 825.6 L 813.8 828.1 C 813.949 828.144 814.08 828.237 814.17 828.364 C 814.261 828.491 814.306 828.644 814.3 828.8 Q 814.3 852.9 814.4 874.9 Q 814.4 884.2 822.1 888.5 C 825.9 890.6 833 890.7 837.4 890.2 Q 852.1 888.3 867.4 879.9 Q 868 879.6 868 878.9 L 868 872.5 C 867.984 872.394 867.94 872.294 867.872 872.211 C 867.804 872.128 867.715 872.065 867.615 872.028 C 867.514 871.99 867.405 871.981 867.3 872 C 860.7 872.7 853.6 873.7 847.4 873.5 C 842.6 873.3 840.6 869.1 840.5 864.9 Q 840.3 847.6 840.5 829.1 Q 840.5 828.7 840.9 828.6 L 865.7 826.2 C 865.852 826.179 865.993 826.11 866.101 826.001 C 866.21 825.893 866.279 825.752 866.3 825.6 L 867.2 816.7 Q 867.3 816.2 866.7 816.2 L 840.9 816.1 Q 840.3 816.1 840.2 815.5 Z M 451.3 812.5 L 449.3 803.8 C 449.255 803.624 449.151 803.469 449.005 803.36 C 448.86 803.251 448.682 803.194 448.5 803.2 L 426.7 803.1 Q 426 803.1 426 803.8 L 426 888.4 C 426 888.506 426.042 888.608 426.117 888.683 C 426.192 888.758 426.294 888.8 426.4 888.8 L 451.3 888.8 C 451.459 888.8 451.612 888.737 451.724 888.624 C 451.837 888.512 451.9 888.359 451.9 888.2 L 451.9 824.7 Q 451.9 824.3 452.2 823.9 Q 453 823.2 453.9 822.7 C 461.3 818.6 479 810.9 482.2 824.3 C 483.4 829.1 483.1 835 483.1 840.5 Q 483.2 866.5 483.1 888.3 C 483.1 888.433 483.153 888.56 483.246 888.654 C 483.34 888.747 483.467 888.8 483.6 888.8 L 508.6 888.8 C 508.706 888.8 508.808 888.758 508.883 888.683 C 508.958 888.608 509 888.506 509 888.4 Q 508.9 860.5 509.1 832.3 Q 509.2 821.7 507.9 817.7 C 503.3 802.6 487.9 798.7 474.1 802.7 Q 462.5 806 451.9 812.8 C 451.823 812.845 451.733 812.863 451.645 812.852 C 451.556 812.84 451.474 812.799 451.412 812.735 C 451.349 812.671 451.31 812.589 451.3 812.5 Z M 655.3 848 Q 672.8 847 689 845.6 C 696.1 845 704.8 843.9 710.1 838.8 Q 710.5 838.3 710.4 837.7 C 707.9 821.3 699.5 806.2 682.6 802.4 Q 667.7 799.1 652.2 804.5 C 637.5 809.7 629.9 823 628.1 838.3 C 625.1 864.8 633.1 889.7 664.2 890.4 C 681.4 890.8 697.1 883.4 711.3 873.3 Q 711.7 873 711.5 872.5 L 709.6 867.1 C 709.576 866.973 709.511 866.857 709.415 866.77 C 709.319 866.683 709.198 866.629 709.069 866.616 C 708.94 866.603 708.811 866.633 708.7 866.7 Q 699.6 870.6 689.8 872.7 Q 679.4 875 672.6 874.1 C 658.8 872.1 654.2 861.2 654.7 848.7 Q 654.7 848.1 655.3 848 Z M 578.6 866.9 C 578.554 866.984 578.479 867.048 578.389 867.081 C 578.299 867.115 578.201 867.115 578.111 867.081 C 578.021 867.048 577.946 866.984 577.9 866.9 C 572.7 849.2 567.1 831.8 559.7 815.1 C 556.1 806.9 552.7 802.2 543 802.1 Q 532.4 802.1 522.4 804 Q 521.6 804.1 521.6 805 L 521.5 812 Q 521.5 812.7 522.3 812.7 Q 527.4 812.5 530.1 816.3 Q 533.8 821.5 537.2 829.2 Q 549.1 856.6 559 888.3 C 559.063 888.457 559.175 888.591 559.318 888.68 C 559.462 888.77 559.631 888.812 559.8 888.8 L 580 888.8 C 580.149 888.8 580.298 888.764 580.437 888.695 C 580.575 888.626 580.699 888.525 580.8 888.4 C 592.6 870.5 604.3 851.8 610.2 831.8 Q 613.7 820 612.9 807.5 Q 612.7 804.8 611.7 801.9 Q 611.5 801.4 611 801.5 L 592.5 804 C 592.332 804.047 592.187 804.155 592.095 804.303 C 592.003 804.451 591.969 804.628 592 804.8 Q 594.7 821.7 591 837.7 C 588.6 847.7 583.6 857.6 578.6 866.9 Z M 397.7 803.6 C 397.721 803.52 397.716 803.435 397.686 803.357 C 397.657 803.279 397.603 803.213 397.534 803.167 C 397.465 803.121 397.383 803.097 397.3 803.1 L 372 803.1 C 371.917 803.097 371.835 803.121 371.766 803.167 C 371.697 803.213 371.643 803.279 371.614 803.357 C 371.584 803.435 371.579 803.52 371.6 803.6 L 371.6 888.4 C 371.6 888.506 371.642 888.608 371.717 888.683 C 371.792 888.758 371.894 888.8 372 888.8 L 397.3 888.8 C 397.406 888.8 397.508 888.758 397.583 888.683 C 397.658 888.608 397.7 888.506 397.7 888.4 L 397.7 803.6 Z"
        fill="#ffffff"/>
    <path
        id="path_37"
        d="M 521 187.5 L 523.1 187.4 C 529.62 186.904 536.078 189.016 541.044 193.27 C 546.01 197.524 549.089 203.581 549.6 210.1 L 555.1 281.5 C 555.428 285.827 554.61 290.166 552.729 294.076 C 550.847 297.987 547.968 301.334 544.382 303.778 C 540.796 306.222 536.628 307.679 532.3 308 L 530.3 308.2 C 525.973 308.528 521.634 307.71 517.724 305.829 C 513.813 303.947 510.466 301.068 508.022 297.482 C 505.578 293.896 504.121 289.728 503.8 285.4 L 498.3 214 C 497.804 207.48 499.916 201.022 504.17 196.056 C 508.424 191.09 514.481 188.011 521 187.5 Z"
        fill="#41698b"/>
    <path
        id="path_38"
        d="M 574.7 224.9 M 564.5 224.9 C 564.5 222.196 565.575 219.6 567.488 217.688 C 569.4 215.775 571.996 214.7 574.7 214.7 C 577.404 214.7 580 215.775 581.912 217.688 C 583.825 219.6 584.9 222.196 584.9 224.9 C 584.9 227.604 583.825 230.2 581.912 232.112 C 580 234.025 577.404 235.1 574.7 235.1 C 571.996 235.1 569.4 234.025 567.488 232.112 C 565.575 230.2 564.5 227.604 564.5 224.9"
        fill="#35312e"/>
    <path
        id="path_39"
        d="M 594.8 272.8 M 567.4 272.8 C 567.4 267.015 569.232 261.375 572.633 256.695 C 576.034 252.014 580.831 248.529 586.333 246.741 C 591.835 244.953 597.765 244.953 603.267 246.741 C 608.769 248.529 613.566 252.014 616.967 256.695 C 620.368 261.375 622.2 267.015 622.2 272.8 C 622.2 278.585 620.368 284.225 616.967 288.905 C 613.566 293.586 608.769 297.071 603.267 298.859 C 597.765 300.647 591.835 300.647 586.333 298.859 C 580.831 297.071 576.034 293.586 572.633 288.905 C 569.232 284.225 567.4 278.585 567.4 272.8"
        fill="#df6236"/>
    <path
        id="path_40"
        d="M 486.1 276.7 M 475.8 276.7 C 475.572 274.398 476.127 272.084 477.374 270.135 C 478.621 268.186 480.489 266.713 482.675 265.955 C 484.861 265.197 487.239 265.197 489.425 265.955 C 491.611 266.713 493.479 268.186 494.726 270.135 C 495.973 272.084 496.528 274.398 496.3 276.7 C 496.528 279.002 495.973 281.316 494.726 283.265 C 493.479 285.214 491.611 286.687 489.425 287.445 C 487.239 288.203 484.861 288.203 482.675 287.445 C 480.489 286.687 478.621 285.214 477.374 283.265 C 476.127 281.316 475.572 279.002 475.8 276.7"
        fill="#98918b"/>
    <path
        id="path_41"
        d="M 635.3 299.1 M 625.1 299.1 C 625.1 296.946 625.782 294.847 627.048 293.105 C 628.314 291.362 630.1 290.065 632.148 289.399 C 634.196 288.734 636.404 288.734 638.452 289.399 C 640.5 290.065 642.286 291.362 643.552 293.105 C 644.818 294.847 645.5 296.946 645.5 299.1 C 645.5 301.254 644.818 303.353 643.552 305.095 C 642.286 306.838 640.5 308.135 638.452 308.801 C 636.404 309.466 634.196 309.466 632.148 308.801 C 630.1 308.135 628.314 306.838 627.048 305.095 C 625.782 303.353 625.1 301.254 625.1 299.1"
        fill="#35312e"/>
    <path
        id="path_42"
        d="M 573.2 305.3 L 643 320 C 647.268 320.89 651.226 322.891 654.475 325.798 C 657.723 328.706 660.148 332.419 661.504 336.562 C 662.861 340.706 663.101 345.134 662.2 349.4 L 661.8 351.3 C 660.91 355.568 658.909 359.526 656.002 362.775 C 653.094 366.023 649.381 368.448 645.238 369.804 C 641.094 371.161 636.666 371.401 632.4 370.5 L 562.5 355.8 C 556.072 354.432 550.444 350.565 546.864 345.054 C 543.284 339.543 542.037 332.829 543.4 326.4 L 543.8 324.5 C 544.69 320.232 546.691 316.274 549.598 313.025 C 552.506 309.777 556.219 307.352 560.362 305.996 C 564.506 304.639 568.934 304.399 573.2 305.3 Z"
        fill="#98918b"/>
    <path
        id="path_43"
        d="M 172.3 677.7 Q 145.5 608.5 161.8 536.4 C 169.8 501 186.8 467.3 209.4 439.6 C 251 388.8 312.1 357.5 377.5 353.1 Q 440.6 348.9 498.5 377 C 498.631 377.042 498.746 377.122 498.832 377.23 C 498.918 377.337 498.97 377.468 498.982 377.605 C 498.994 377.742 498.966 377.879 498.9 378 L 450 476.5 C 449.936 476.623 449.831 476.721 449.704 476.775 C 449.576 476.83 449.433 476.839 449.3 476.8 C 415.3 460.5 376.7 459.1 342.2 474.7 C 270.8 506.7 244.6 594.4 287.9 660 Q 306.3 687.9 336.9 703.4 C 337.002 703.417 337.093 703.469 337.159 703.55 C 337.226 703.631 337.266 703.737 337.273 703.853 C 337.28 703.969 337.255 704.09 337.2 704.2 L 288.3 802.8 C 288.244 802.919 288.156 803.021 288.045 803.092 C 287.934 803.163 287.805 803.202 287.674 803.203 C 287.542 803.205 287.412 803.169 287.3 803.1 Q 215.8 766.5 180.4 695.9 Q 175.9 686.8 172.3 677.7 Z"
        fill="#528566"/>
    <path
        id="path_44"
        d="M 582.2 389 M 559.1 389 C 559.1 382.876 561.535 376.996 565.866 372.666 C 570.196 368.335 576.076 365.9 582.2 365.9 C 588.324 365.9 594.204 368.335 598.534 372.666 C 602.865 376.996 605.3 382.876 605.3 389 C 605.3 395.124 602.865 401.004 598.534 405.334 C 594.204 409.665 588.324 412.1 582.2 412.1 C 576.076 412.1 570.196 409.665 565.866 405.334 C 561.535 401.004 559.1 395.124 559.1 389"
        fill="#df6236"/>
    <path
        id="path_45"
        d="M 660.7 380.6 M 652.4 380.6 C 652.394 378.833 652.95 377.11 653.985 375.678 C 655.021 374.247 656.485 373.181 658.165 372.634 C 659.845 372.087 661.655 372.087 663.335 372.634 C 665.015 373.181 666.479 374.247 667.515 375.678 C 668.55 377.11 669.106 378.833 669.1 380.6 C 669.106 382.367 668.55 384.09 667.515 385.522 C 666.479 386.953 665.015 388.019 663.335 388.566 C 661.655 389.113 659.845 389.113 658.165 388.566 C 656.485 388.019 655.021 386.953 653.985 385.522 C 652.95 384.09 652.394 382.367 652.4 380.6"
        fill="#35312e"/>
    <path
        id="path_46"
        d="M 624.6 384 M 617 384 C 617 381.985 617.801 380.051 619.226 378.626 C 620.651 377.201 622.585 376.4 624.6 376.4 C 626.615 376.4 628.549 377.201 629.974 378.626 C 631.399 380.051 632.2 381.985 632.2 384 C 632.2 386.015 631.399 387.949 629.974 389.374 C 628.549 390.799 626.615 391.6 624.6 391.6 C 622.585 391.6 620.651 390.799 619.226 389.374 C 617.801 387.949 617 386.015 617 384"
        fill="#35312e"/>
    <path
        id="path_47"
        d="M 567.6 425.6 L 632.9 397.1 C 636.91 395.349 641.312 394.687 645.66 395.178 C 650.008 395.67 654.15 397.299 657.668 399.901 C 661.186 402.503 663.957 405.987 665.7 410 L 666.4 411.6 C 668.151 415.61 668.813 420.012 668.322 424.36 C 667.83 428.708 666.201 432.85 663.599 436.368 C 660.997 439.886 657.513 442.657 653.5 444.4 L 588.3 472.9 C 584.291 474.675 579.883 475.361 575.524 474.886 C 571.165 474.412 567.008 472.794 563.474 470.198 C 559.941 467.602 557.155 464.118 555.4 460.1 L 554.7 458.5 C 552.929 454.483 552.251 450.067 552.736 445.704 C 553.221 441.34 554.852 437.181 557.462 433.651 C 560.072 430.121 563.57 427.343 567.6 425.6 Z"
        fill="#f6ac49"/>
    <path
        id="path_48"
        d="M 629.7 489 M 606.6 489 C 606.585 484.113 608.121 479.344 610.986 475.385 C 613.851 471.425 617.9 468.475 622.548 466.962 C 627.195 465.449 632.205 465.449 636.852 466.962 C 641.5 468.475 645.549 471.425 648.414 475.385 C 651.279 479.344 652.815 484.113 652.8 489 C 652.815 493.887 651.279 498.656 648.414 502.615 C 645.549 506.575 641.5 509.525 636.852 511.038 C 632.205 512.551 627.195 512.551 622.548 511.038 C 617.9 509.525 613.851 506.575 610.986 502.615 C 608.121 498.656 606.585 493.887 606.6 489"
        fill="#df6236"/>
    <path
        id="path_49"
        d="M 541.7 481.2 L 543.7 480.9 C 550.208 479.988 556.819 481.699 562.068 485.654 C 567.316 489.609 570.783 495.492 571.7 502 L 581.6 572.7 C 582.514 579.193 580.816 585.791 576.882 591.037 C 572.948 596.282 567.089 599.759 560.6 600.7 L 558.5 601 C 552.008 601.884 545.422 600.159 540.196 596.207 C 534.97 592.254 531.518 586.388 530.6 579.9 L 520.6 509.2 C 519.688 502.692 521.399 496.081 525.354 490.832 C 529.309 485.584 535.192 482.117 541.7 481.2 Z"
        fill="#41698b"/>
    <path
        id="path_50"
        d="M 588.9 499.4 M 578.6 499.4 C 578.372 497.098 578.927 494.784 580.174 492.835 C 581.421 490.886 583.289 489.413 585.475 488.655 C 587.661 487.897 590.039 487.897 592.225 488.655 C 594.411 489.413 596.279 490.886 597.526 492.835 C 598.773 494.784 599.328 497.098 599.1 499.4 C 599.328 501.702 598.773 504.016 597.526 505.965 C 596.279 507.914 594.411 509.387 592.225 510.145 C 590.039 510.903 587.661 510.903 585.475 510.145 C 583.289 509.387 581.421 507.914 580.174 505.965 C 578.927 504.016 578.372 501.702 578.6 499.4"
        fill="#f6ac49"/>
    <path
        id="path_51"
        d="M 491.5 538.8 M 469.9 538.8 C 469.576 534.049 470.832 529.322 473.472 525.359 C 476.111 521.396 479.988 518.414 484.496 516.881 C 489.004 515.348 493.896 515.348 498.404 516.881 C 502.912 518.414 506.789 521.396 509.428 525.359 C 512.068 529.322 513.324 534.049 513 538.8 C 513.324 543.551 512.068 548.278 509.428 552.241 C 506.789 556.204 502.912 559.186 498.404 560.719 C 493.896 562.252 489.004 562.252 484.496 560.719 C 479.988 559.186 476.111 556.204 473.472 552.241 C 470.832 548.278 469.576 543.551 469.9 538.8"
        fill="#f6ac49"/>
    <path
        id="path_52"
        d="M 608.4 535.6 M 590.6 535.6 C 590.588 531.823 591.775 528.139 593.989 525.079 C 596.203 522.019 599.332 519.74 602.923 518.571 C 606.514 517.401 610.386 517.401 613.977 518.571 C 617.568 519.74 620.697 522.019 622.911 525.079 C 625.125 528.139 626.312 531.823 626.3 535.6 C 626.312 539.377 625.125 543.061 622.911 546.121 C 620.697 549.181 617.568 551.46 613.977 552.629 C 610.386 553.799 606.514 553.799 602.923 552.629 C 599.332 551.46 596.203 549.181 593.989 546.121 C 591.775 543.061 590.588 539.377 590.6 535.6"
        fill="#98918b"/>
    <path
        id="path_53"
        d="M 412.8 537.5 L 414 536.5 C 419.12 532.266 425.717 530.233 432.332 530.852 C 438.947 531.47 445.054 534.69 449.3 539.8 L 494.6 594.6 C 498.823 599.732 500.838 606.338 500.201 612.953 C 499.564 619.569 496.325 625.668 491.2 629.9 L 490 630.9 C 484.868 635.123 478.262 637.138 471.647 636.501 C 465.031 635.864 458.932 632.625 454.7 627.5 L 409.4 572.8 C 405.177 567.668 403.162 561.062 403.799 554.447 C 404.436 547.831 407.675 541.732 412.8 537.5 Z"
        fill="#df6236"/>
    <path
        id="path_54"
        d="M 507.8 577.4 M 497.5 577.4 C 497.5 574.669 498.586 572.048 500.517 570.117 C 502.448 568.186 505.069 567.1 507.8 567.1 C 510.531 567.1 513.152 568.186 515.083 570.117 C 517.014 572.048 518.1 574.669 518.1 577.4 C 518.1 580.131 517.014 582.752 515.083 584.683 C 513.152 586.614 510.531 587.7 507.8 587.7 C 505.069 587.7 502.448 586.614 500.517 584.683 C 498.586 582.752 497.5 580.131 497.5 577.4"
        fill="#35312e"/>
    <path
        id="path_55"
        d="M 391.7 608.5 M 364.9 608.5 C 364.9 601.395 367.725 594.574 372.75 589.55 C 377.774 584.525 384.595 581.7 391.7 581.7 C 398.805 581.7 405.626 584.525 410.65 589.55 C 415.675 594.574 418.5 601.395 418.5 608.5 C 418.5 615.605 415.675 622.426 410.65 627.45 C 405.626 632.475 398.805 635.3 391.7 635.3 C 384.595 635.3 377.774 632.475 372.75 627.45 C 367.725 622.426 364.9 615.605 364.9 608.5"
        fill="#f6ac49"/>
    <path
        id="path_56"
        d="M 523 609.6 M 510.3 609.6 C 510.291 606.902 511.139 604.27 512.721 602.085 C 514.302 599.9 516.537 598.271 519.102 597.436 C 521.667 596.601 524.433 596.601 526.998 597.436 C 529.563 598.271 531.798 599.9 533.379 602.085 C 534.961 604.27 535.809 606.902 535.8 609.6 C 535.809 612.298 534.961 614.93 533.379 617.115 C 531.798 619.3 529.563 620.929 526.998 621.764 C 524.433 622.599 521.667 622.599 519.102 621.764 C 516.537 620.929 514.302 619.3 512.721 617.115 C 511.139 614.93 510.291 612.298 510.3 609.6"
        fill="#98918b"/>
    <path
        id="path_57"
        d="M 433.1 629.7 M 422 629.7 C 421.993 627.341 422.734 625.039 424.117 623.128 C 425.5 621.217 427.455 619.793 429.698 619.063 C 431.941 618.332 434.359 618.332 436.602 619.063 C 438.845 619.793 440.8 621.217 442.183 623.128 C 443.566 625.039 444.307 627.341 444.3 629.7 C 444.307 632.059 443.566 634.361 442.183 636.272 C 440.8 638.183 438.845 639.607 436.602 640.337 C 434.359 641.068 431.941 641.068 429.698 640.337 C 427.455 639.607 425.5 638.183 424.117 636.272 C 422.734 634.361 421.993 632.059 422 629.7"
        fill="#41698b"/>
    <path
        id="path_58"
        d="M 503 709 C 502.992 709.084 503.011 709.169 503.054 709.242 C 503.098 709.315 503.163 709.372 503.241 709.405 C 503.318 709.438 503.405 709.446 503.487 709.427 C 503.57 709.408 503.644 709.364 503.7 709.3 C 512.4 703.7 524.4 698.1 535 697.9 C 550.8 697.6 560.9 707.4 560.9 723.4 Q 560.9 753.7 560.9 785.3 C 560.9 785.37 560.882 785.439 560.846 785.5 C 560.811 785.561 560.761 785.611 560.7 785.646 C 560.639 785.682 560.57 785.7 560.5 785.7 L 535.2 785.7 C 535.082 785.702 534.967 785.669 534.868 785.605 C 534.769 785.542 534.691 785.45 534.643 785.343 C 534.595 785.235 534.58 785.116 534.6 785 Q 534.7 754.1 534.5 724.6 C 534.5 719.1 531.9 714.1 525.7 713.5 C 518.4 712.8 510.5 716.4 504.1 720.2 C 503.969 720.287 503.864 720.406 503.794 720.547 C 503.723 720.687 503.691 720.843 503.7 721 L 503.7 785.3 C 503.7 785.37 503.682 785.439 503.646 785.5 C 503.611 785.561 503.561 785.611 503.5 785.646 C 503.439 785.682 503.37 785.7 503.3 785.7 L 478.2 785.7 C 478.102 785.72 478 785.71 477.907 785.671 C 477.814 785.633 477.736 785.567 477.681 785.483 C 477.626 785.399 477.598 785.3 477.6 785.2 L 477.6 683.3 Q 477.6 682.9 478 682.8 L 503 678.1 C 503.088 678.081 503.179 678.085 503.265 678.114 C 503.35 678.142 503.427 678.193 503.486 678.261 C 503.545 678.329 503.584 678.411 503.6 678.5 Q 504 694.7 503 709 Z"
        fill="#35312e"/>
    <path
        id="path_59"
        d="M 398 692.8 L 398 785.2 Q 398 785.7 397.5 785.7 L 372.3 785.7 C 372.114 785.7 371.936 785.626 371.805 785.495 C 371.674 785.364 371.6 785.186 371.6 785 L 371.6 680 C 371.6 679.867 371.653 679.74 371.746 679.646 C 371.84 679.553 371.967 679.5 372.1 679.5 Q 394.9 677.8 418.2 678.3 Q 424.9 678.5 433.5 681.2 C 449.4 686.2 457.1 698 457.4 714 C 457.9 745.3 432.2 758.2 404.4 757.7 Q 403.8 757.7 403.7 757.1 L 402.1 748 C 402.069 747.828 402.103 747.651 402.195 747.503 C 402.287 747.355 402.432 747.247 402.6 747.2 C 414.2 745.1 424.7 741.8 428.4 729.2 C 432.3 715.4 431 693.6 412.2 691.7 Q 406 691 398.7 692 Q 398 692.1 398 692.8 Z"
        fill="#35312e"/>
    <path
        id="path_60"
        d="M 632.2 776.5 Q 627.1 780.2 621.9 782.9 Q 612.8 787.7 601.6 787 C 583.3 785.9 579.2 768.1 582.3 753.3 C 585.4 739.1 598.8 735.8 611.3 735.1 Q 620.5 734.6 629.7 734.3 Q 630.3 734.3 630.3 733.7 Q 630.3 728 630.3 722.3 C 630.4 714.6 624.6 712.7 618.1 712.9 Q 605.3 713.2 594.2 717.7 Q 593.5 717.9 593.3 717.3 L 590.2 709.3 Q 589.8 708.5 590.6 708.2 C 607 701.2 625.3 695.4 642 699.1 C 653 701.5 656.5 710 656.4 720.1 Q 656.4 740.7 656.5 761.5 C 656.5 764.9 657.7 772.2 662.3 772.3 Q 667.2 772.5 671.3 771 Q 672 770.8 672 771.5 L 672 776.7 C 671.997 776.908 671.952 777.113 671.866 777.303 C 671.78 777.492 671.655 777.661 671.5 777.8 C 661.3 786.3 640.4 793.2 633 776.8 Q 632.7 776.2 632.2 776.5 Z M 630.1 742.9 Q 622 742.4 614 744.5 C 612.1 745 610.4 746.1 609.9 748.2 C 608.8 753.3 607.2 767.4 612.6 771 C 616.7 773.8 626.3 770.3 630.9 768.9 C 631.023 768.857 631.128 768.775 631.2 768.667 C 631.272 768.559 631.307 768.43 631.3 768.3 L 630.2 743 C 630.2 742.973 630.189 742.948 630.171 742.929 C 630.152 742.911 630.127 742.9 630.1 742.9 Z"
        fill="#35312e"/>
    <path
        id="path_61"
        d="M 712.1 712.3 C 716.3 706.2 720.7 699.7 728.6 698.7 Q 734.2 697.9 740.8 698 Q 741.4 698 741.3 698.6 L 738.6 719 Q 738.5 719.6 737.9 719.4 C 732.4 717.6 725.4 716.6 720.9 717.9 Q 716.6 719.2 712.4 723.9 Q 712 724.4 712 725 L 712 785.3 C 712 785.37 711.982 785.439 711.946 785.5 C 711.911 785.561 711.861 785.611 711.8 785.646 C 711.739 785.682 711.67 785.7 711.6 785.7 L 686.7 785.7 C 686.567 785.7 686.44 785.647 686.346 785.554 C 686.253 785.46 686.2 785.333 686.2 785.2 L 686.1 700.4 C 686.097 700.317 686.121 700.235 686.167 700.166 C 686.213 700.097 686.279 700.043 686.357 700.014 C 686.435 699.984 686.52 699.979 686.6 700 L 709.2 700 C 709.265 699.996 709.329 700.014 709.383 700.05 C 709.437 700.086 709.478 700.139 709.5 700.2 L 711.4 712.2 Q 711.6 713.1 712.1 712.3 Z"
        fill="#35312e"/>
    <path
        id="path_62"
        d="M 782.4 709 Q 782.6 709.8 783.3 709.3 Q 793.3 702.8 803.5 699.6 C 816 695.7 829 698.4 835.1 710.2 Q 835.4 710.7 836 710.4 C 844.8 704.8 856.3 698.8 866.7 698.1 C 880.2 697 890.7 705 892.3 718.9 Q 892.7 722.7 892.7 726.2 Q 892.8 755.3 892.7 785.2 C 892.7 785.333 892.647 785.46 892.554 785.554 C 892.46 785.647 892.333 785.7 892.2 785.7 L 867 785.7 C 866.814 785.7 866.636 785.626 866.505 785.495 C 866.374 785.364 866.3 785.186 866.3 785 Q 866.3 758.4 866.4 728.8 C 866.4 719.9 864.9 712.2 853.8 713.8 Q 846.5 714.9 838.3 720.4 Q 837.9 720.7 837.9 721.3 L 837.9 785 C 837.923 785.116 837.905 785.235 837.85 785.343 C 837.794 785.45 837.703 785.542 837.588 785.605 C 837.472 785.669 837.337 785.702 837.2 785.7 L 812.4 785.7 C 812.294 785.7 812.192 785.658 812.117 785.583 C 812.042 785.508 812 785.406 812 785.3 Q 812 758 812 731.8 C 812 728.9 811.7 726 811.3 723 C 809.7 706.8 790.7 715.3 783.5 720.5 C 783.348 720.619 783.224 720.771 783.137 720.944 C 783.051 721.116 783.004 721.307 783 721.5 L 783 785.1 Q 783 785.7 782.4 785.7 L 757.5 785.7 C 757.412 785.677 757.334 785.625 757.28 785.553 C 757.225 785.48 757.197 785.391 757.2 785.3 L 757.1 700.3 C 757.1 700.22 757.132 700.144 757.188 700.088 C 757.244 700.032 757.32 700 757.4 700 L 779.9 700 Q 780.4 700 780.5 700.5 L 782.4 709 Z"
        fill="#35312e"/>
    <path
        id="path_63"
        d="M 964.7 776.8 C 964.658 776.719 964.595 776.651 964.517 776.603 C 964.44 776.556 964.35 776.53 964.259 776.53 C 964.168 776.529 964.078 776.553 964 776.6 C 953 783.6 944.2 788.7 930.7 786.7 C 916 784.5 912.3 770.5 913.4 757.8 C 914.8 740.8 927.8 735.8 942.5 735.1 Q 952.4 734.7 961.5 734.3 C 961.659 734.3 961.812 734.237 961.924 734.124 C 962.037 734.012 962.1 733.859 962.1 733.7 Q 962.3 726.4 962 720.7 C 961 706.8 932.8 714.9 925.9 717.7 Q 925.3 717.9 925 717.3 L 921.8 709 Q 921.6 708.5 922.1 708.3 C 936.9 701.8 952.5 696.9 968.8 698.3 C 982.3 699.4 988.1 706.8 988 719.9 Q 988 738.6 988 758 C 987.9 762.2 988.4 772.5 994.7 772.4 Q 999.4 772.3 1003.3 771 Q 1003.9 770.8 1003.9 771.5 L 1003.9 776.5 Q 1003.9 777.4 1003.2 777.9 C 992.3 786.5 972.4 793.1 964.7 776.8 Z M 941.1 764.8 C 941.7 769.5 944.3 772.5 949.3 772 Q 956.1 771.3 962.7 768.7 Q 963.2 768.5 963.2 767.9 Q 962.1 755.8 962.2 743.6 Q 962.2 742.9 961.5 742.9 C 957.6 742.7 942.9 742.8 941.8 747.9 Q 939.9 756 941.1 764.8 Z"
        fill="#35312e"/>
    <path
        id="path_64"
        d="M 630.1 742.9 C 630.127 742.9 630.152 742.911 630.171 742.929 C 630.189 742.948 630.2 742.973 630.2 743 L 631.3 768.3 C 631.307 768.43 631.272 768.559 631.2 768.667 C 631.128 768.775 631.023 768.857 630.9 768.9 C 626.3 770.3 616.7 773.8 612.6 771 C 607.2 767.4 608.8 753.3 609.9 748.2 C 610.4 746.1 612.1 745 614 744.5 Q 622 742.4 630.1 742.9 Z"
        fill="#ffffff"/>
    <path
        id="path_65"
        d="M 949.3 772 C 944.3 772.5 941.7 769.5 941.1 764.8 Q 939.9 756 941.8 747.9 C 942.9 742.8 957.6 742.7 961.5 742.9 Q 962.2 742.9 962.2 743.6 Q 962.1 755.8 963.2 767.9 Q 963.2 768.5 962.7 768.7 Q 956.1 771.3 949.3 772 Z"
        fill="#ffffff"/>
    <path
        id="path_66"
        d="M 767 876.9 C 771.9 875.5 772 868.4 771.4 864.6 C 770.7 859.9 763.8 857.1 759.7 855.7 C 752.6 853.2 745.2 851.2 738.7 847.3 C 728.5 841.2 724 828.9 730.1 818.1 C 735.2 809.1 744.7 802.8 755 801.6 Q 761.7 800.8 768.9 801.4 Q 778.3 802.1 787.5 803.4 C 787.589 803.416 787.671 803.455 787.739 803.514 C 787.807 803.573 787.858 803.65 787.886 803.735 C 787.915 803.821 787.919 803.912 787.9 804 L 785.3 820 C 785.278 820.193 785.194 820.373 785.061 820.514 C 784.928 820.655 784.752 820.75 784.561 820.783 C 784.37 820.817 784.173 820.788 784 820.7 Q 773 817 763 815.7 C 760.6 815.3 751.3 814.5 750 817.6 C 746.4 826.2 753.2 829.7 759.9 832 Q 767.3 834.5 774.3 837 C 781.6 839.5 790.4 845.4 792.4 853.1 Q 796.3 867.7 785.9 877.9 C 778.2 885.5 770.3 890 758.8 890.4 C 746.7 890.7 735.1 888.8 724.5 882.7 C 724.377 882.636 724.279 882.531 724.225 882.404 C 724.17 882.276 724.161 882.133 724.2 882 L 730.4 866.6 C 730.441 866.484 730.516 866.384 730.615 866.312 C 730.714 866.24 730.833 866.201 730.955 866.199 C 731.078 866.196 731.198 866.232 731.3 866.3 C 741.7 873.4 755.1 880.5 767 876.9 Z"
        fill="#35312e"/>
    <path
        id="path_67"
        d="M 840.2 815.5 Q 840.3 816.1 840.9 816.1 L 866.7 816.2 Q 867.3 816.2 867.2 816.7 L 866.3 825.6 C 866.279 825.752 866.21 825.893 866.101 826.001 C 865.993 826.11 865.852 826.179 865.7 826.2 L 840.9 828.6 Q 840.5 828.7 840.5 829.1 Q 840.3 847.6 840.5 864.9 C 840.6 869.1 842.6 873.3 847.4 873.5 C 853.6 873.7 860.7 872.7 867.3 872 C 867.405 871.981 867.514 871.99 867.615 872.028 C 867.715 872.065 867.804 872.128 867.872 872.211 C 867.94 872.294 867.984 872.394 868 872.5 L 868 878.9 Q 868 879.6 867.4 879.9 Q 852.1 888.3 837.4 890.2 C 833 890.7 825.9 890.6 822.1 888.5 Q 814.4 884.2 814.4 874.9 Q 814.3 852.9 814.3 828.8 C 814.306 828.644 814.261 828.491 814.17 828.364 C 814.08 828.237 813.949 828.144 813.8 828.1 L 805.5 825.6 Q 805 825.4 805 825 L 805 820.2 C 805.01 820.015 805.061 819.837 805.148 819.681 C 805.235 819.525 805.355 819.394 805.5 819.3 Q 818.5 810.6 831.4 802 C 833.5 800.5 836.7 801.1 839.2 801.1 Q 839.8 801.1 839.8 801.7 L 840.2 815.5 Z"
        fill="#35312e"/>
    <path
        id="path_68"
        d="M 451.3 812.5 C 451.31 812.589 451.349 812.671 451.412 812.735 C 451.474 812.799 451.556 812.84 451.645 812.852 C 451.733 812.863 451.823 812.845 451.9 812.8 Q 462.5 806 474.1 802.7 C 487.9 798.7 503.3 802.6 507.9 817.7 Q 509.2 821.7 509.1 832.3 Q 508.9 860.5 509 888.4 C 509 888.506 508.958 888.608 508.883 888.683 C 508.808 888.758 508.706 888.8 508.6 888.8 L 483.6 888.8 C 483.467 888.8 483.34 888.747 483.246 888.654 C 483.153 888.56 483.1 888.433 483.1 888.3 Q 483.2 866.5 483.1 840.5 C 483.1 835 483.4 829.1 482.2 824.3 C 479 810.9 461.3 818.6 453.9 822.7 Q 453 823.2 452.2 823.9 Q 451.9 824.3 451.9 824.7 L 451.9 888.2 C 451.9 888.359 451.837 888.512 451.724 888.624 C 451.612 888.737 451.459 888.8 451.3 888.8 L 426.4 888.8 C 426.294 888.8 426.192 888.758 426.117 888.683 C 426.042 888.608 426 888.506 426 888.4 L 426 803.8 Q 426 803.1 426.7 803.1 L 448.5 803.2 C 448.682 803.194 448.86 803.251 449.005 803.36 C 449.151 803.469 449.255 803.624 449.3 803.8 L 451.3 812.5 Z"
        fill="#35312e"/>
    <path
        id="path_69"
        d="M 654.7 848.7 C 654.2 861.2 658.8 872.1 672.6 874.1 Q 679.4 875 689.8 872.7 Q 699.6 870.6 708.7 866.7 C 708.811 866.633 708.94 866.603 709.069 866.616 C 709.198 866.629 709.319 866.683 709.415 866.77 C 709.511 866.857 709.576 866.973 709.6 867.1 L 711.5 872.5 Q 711.7 873 711.3 873.3 C 697.1 883.4 681.4 890.8 664.2 890.4 C 633.1 889.7 625.1 864.8 628.1 838.3 C 629.9 823 637.5 809.7 652.2 804.5 Q 667.7 799.1 682.6 802.4 C 699.5 806.2 707.9 821.3 710.4 837.7 Q 710.5 838.3 710.1 838.8 C 704.8 843.9 696.1 845 689 845.6 Q 672.8 847 655.3 848 Q 654.7 848.1 654.7 848.7 Z M 682.5 835.4 C 681.7 827.8 678.3 813.9 669 813.8 Q 660.6 813.7 658.4 818.5 C 656.1 823.7 655.2 830.7 654.9 836.4 C 654.9 836.612 654.984 836.816 655.134 836.966 C 655.284 837.116 655.488 837.2 655.7 837.2 L 682 836 Q 682.5 836 682.5 835.4 Z"
        fill="#35312e"/>
    <path
        id="path_70"
        d="M 578.6 866.9 C 583.6 857.6 588.6 847.7 591 837.7 Q 594.7 821.7 592 804.8 C 591.969 804.628 592.003 804.451 592.095 804.303 C 592.187 804.155 592.332 804.047 592.5 804 L 611 801.5 Q 611.5 801.4 611.7 801.9 Q 612.7 804.8 612.9 807.5 Q 613.7 820 610.2 831.8 C 604.3 851.8 592.6 870.5 580.8 888.4 C 580.699 888.525 580.575 888.626 580.437 888.695 C 580.298 888.764 580.149 888.8 580 888.8 L 559.8 888.8 C 559.631 888.812 559.462 888.77 559.318 888.68 C 559.175 888.591 559.063 888.457 559 888.3 Q 549.1 856.6 537.2 829.2 Q 533.8 821.5 530.1 816.3 Q 527.4 812.5 522.3 812.7 Q 521.5 812.7 521.5 812 L 521.6 805 Q 521.6 804.1 522.4 804 Q 532.4 802.1 543 802.1 C 552.7 802.2 556.1 806.9 559.7 815.1 C 567.1 831.8 572.7 849.2 577.9 866.9 C 577.946 866.984 578.021 867.048 578.111 867.081 C 578.201 867.115 578.299 867.115 578.389 867.081 C 578.479 867.048 578.554 866.984 578.6 866.9 Z"
        fill="#35312e"/>
    <path
        id="path_71"
        d="M 372 803.1 L 397.3 803.1 C 397.383 803.097 397.465 803.121 397.534 803.167 C 397.603 803.213 397.657 803.279 397.686 803.357 C 397.716 803.435 397.721 803.52 397.7 803.6 L 397.7 888.4 C 397.7 888.506 397.658 888.608 397.583 888.683 C 397.508 888.758 397.406 888.8 397.3 888.8 L 372 888.8 C 371.894 888.8 371.792 888.758 371.717 888.683 C 371.642 888.608 371.6 888.506 371.6 888.4 L 371.6 803.6 C 371.579 803.52 371.584 803.435 371.614 803.357 C 371.643 803.279 371.697 803.213 371.766 803.167 C 371.835 803.121 371.917 803.097 372 803.1 Z"
        fill="#35312e"/>
    <path
        id="path_72"
        d="M 669 813.8 C 678.3 813.9 681.7 827.8 682.5 835.4 Q 682.5 836 682 836 L 655.7 837.2 C 655.488 837.2 655.284 837.116 655.134 836.966 C 654.984 836.816 654.9 836.612 654.9 836.4 C 655.2 830.7 656.1 823.7 658.4 818.5 Q 660.6 813.7 669 813.8 Z"
        fill="#ffffff"/>
</svg>
